# xmcd
#
# Track frame offsets: 
#        150
#        11122
#        25482
#        38685
#        50502
#        61135
#        70532
#        81392
#        92735
#        106177
#        119372
#        132070
#        141405
#        153677
#        164757
#        176602
#        189300
#        203840
#        215100
#        227872
#
# Disc length: 3194 seconds
#
# Revision: 5
# Processed by: cddbd v1.5.2PL0 Copyright (c) Steve Scherf et al.
# Submitted via: ExactAudioCopy v1.0b1
#
DISCID=210c7814
DTITLE=Various Artist - The Very Best Of Country Legends Disc 2
DYEAR=2003
DGENRE=Country
TTITLE0=Faron Young - Hello Walls
TTITLE1=Tex Ritter - I Dreamed of a Hillbilly Heaven
TTITLE2=Tex Williams - Never Trust a Woman
TTITLE3=Tennessee Ernie Ford - Sixteen Tons
TTITLE4=Floyd Cramer - San Antonio Rose
TTITLE5=Dottie West - Country Sunshine
TTITLE6=Jim Reeves - Welcome To My World
TTITLE7=Marty Robbins - A White Sportscoat (and a Pink Carnation)
TTITLE8=David Houston - Almost Persuaded
TTITLE9=Charlie Rich - Behind Closed Doors
TTITLE10=Johnny Horton - North to Alaska
TTITLE11=Tammy Wynette - Your Good Girl's Gone Bad
TTITLE12=Burl Ives - Call Me Mr. In-Between
TTITLE13=Conway Twitty - Hello Darlin'
TTITLE14=Ernest Tubb - Walking The Floor Over You
TTITLE15=Walter Brennan - Old Rivers
TTITLE16=Eddie Rabbit - I Wanna Dance With You
TTITLE17=Roger Miller - King of the Road
TTITLE18=Roy Rogers - Blue Shadows on the Trail
TTITLE19=Patsy Cline - Walkin' After Midnight
EXTD=YEAR: 2003
EXTT0=
EXTT1=
EXTT2=
EXTT3=
EXTT4=
EXTT5=
EXTT6=
EXTT7=
EXTT8=
EXTT9=
EXTT10=
EXTT11=
EXTT12=
EXTT13=
EXTT14=
EXTT15=
EXTT16=
EXTT17=
EXTT18=
EXTT19=
PLAYORDER=
